<svg width="19" height="17" viewBox="0 0 19 17" fill="none" xmlns="http://www.w3.org/2000/svg">
<path d="M4.02109 1.95966C4.45437 2.85172 5.06097 3.65457 5.69645 4.39795C6.62079 5.43868 8.18061 3.86271 7.1985 2.85172C6.38971 1.9894 5.32094 1.42443 4.74323 0.32423C4.48326 -0.151532 3.87666 -0.0623266 3.58781 0.32423C3.12564 1.00814 2.6057 1.66231 2.02799 2.28675C1.53693 2.79225 0.988105 3.23827 0.583707 3.83298C0.381508 4.13033 0.699249 4.54662 1.04588 4.42768C2.2013 4.04112 3.18341 3.00039 4.02109 1.95966Z" fill="#E0DBDC"/>
<path d="M16.1817 0.32423C15.9217 -0.151532 15.3151 -0.0623266 15.0263 0.32423C14.5641 1.00814 14.0442 1.66231 13.4665 2.28675C12.9754 2.79225 12.4266 3.23827 12.0222 3.83298C11.82 4.13033 12.1377 4.54662 12.4844 4.42768C13.6398 4.04112 14.6219 3.00039 15.4307 1.95966C15.864 2.85172 16.4706 3.65457 17.106 4.39795C18.0304 5.43868 19.5902 3.86271 18.6081 2.85172C17.8282 1.9894 16.7594 1.42443 16.1817 0.32423Z" fill="#E0DBDC"/>
<path d="M1.96665 11.3069C3.54261 14.1912 6.60533 16.4511 9.96541 16.5105C13.1471 16.57 16.7153 14.3993 17.4884 11.2177C17.5776 10.8608 17.1316 10.5932 16.864 10.8608C14.9312 12.7936 12.9092 14.6967 9.99514 14.7562C7.61633 14.8156 5.62407 13.5667 4.25626 11.7529C7.40818 11.8124 10.5601 11.8718 13.712 11.9016C14.9312 11.9016 14.9312 9.99853 13.712 9.99853C10.0546 9.96879 6.39719 9.99853 2.71003 10.0283C2.05586 10.0283 1.6693 10.7419 1.96665 11.3069Z" fill="#E0DBDC"/>
</svg>
