<svg width="19" height="16" viewBox="0 0 19 16" fill="none" xmlns="http://www.w3.org/2000/svg">
<path d="M17.5079 1.03795C15.8058 0.888634 14.0439 1.03795 12.3716 1.39629C11.4459 1.57546 11.7147 2.91926 12.5807 2.94912C14.2231 3.06857 15.8655 3.1283 17.5079 3.15816C18.8816 3.15816 18.8517 1.15739 17.5079 1.03795Z" fill="#E0DBDC"/>
<path d="M6.04064 0.858258C4.3385 0.708947 2.57663 0.858258 0.90435 1.2166C-0.0213771 1.39578 0.247382 2.73957 1.11339 2.76944C2.7558 2.88889 4.39822 2.94861 6.04064 2.97847C7.4143 2.97847 7.35458 0.977707 6.04064 0.858258Z" fill="#E0DBDC"/>
<path d="M14.8204 8.23412C14.4322 8.5626 14.4023 8.83136 14.2829 9.27929C14.1933 9.72722 13.9544 10.1154 13.7155 10.5036C13.2079 11.3099 12.5509 12.0266 11.7446 12.5641C10.1619 13.6093 8.25073 13.7885 6.42914 14.0871C6.19024 14.117 6.19024 14.4753 6.36942 14.5948C8.37018 15.7295 10.9085 15.1323 12.7301 13.9378C13.6558 13.3405 14.4621 12.5343 15.119 11.6384C15.6566 10.862 16.5823 9.57791 16.2538 8.62232C16.0448 7.96536 15.3281 7.81605 14.8204 8.23412Z" fill="#E0DBDC"/>
</svg>
