<svg width="20" height="20" viewBox="0 0 20 20" fill="none" xmlns="http://www.w3.org/2000/svg">
<path d="M12.7036 0.544889C12.5526 0.95919 12.5526 1.45117 12.5275 1.89137C12.4772 2.51282 12.4017 3.16016 12.4269 3.78162C12.4772 4.71379 13.7349 4.6879 13.8103 3.78162C13.8606 3.16016 13.8103 2.51282 13.7852 1.89137C13.76 1.45117 13.7852 0.985084 13.6594 0.544889C13.5085 0.0529066 12.8796 0.0788005 12.7036 0.544889Z" fill="#79707A" fill-opacity="0.76"/>
<path d="M15.4954 0.389849C15.2438 0.80415 15.3193 1.52918 15.3193 1.99527C15.3193 2.61672 15.1684 3.49711 15.3948 4.09266C15.5457 4.53286 16.1494 4.55875 16.2752 4.09266C16.4512 3.49711 16.25 2.61672 16.2248 1.99527C16.1997 1.52918 16.2248 0.778256 15.9482 0.389849C15.8224 0.208592 15.596 0.208592 15.4954 0.389849Z" fill="#79707A" fill-opacity="0.76"/>
<path d="M19.1676 7.66685C19.1676 6.65699 19.1425 5.64713 19.0922 4.66317C19.067 3.65331 19.0419 2.66934 18.8658 1.65948C18.7903 1.24518 18.7903 0.675517 18.4633 0.364791C18.3627 0.261216 18.2369 0.261216 18.1363 0.364791C17.8345 0.649623 17.8093 1.19339 17.7338 1.60769C17.5829 2.61755 17.5578 3.62741 17.5326 4.66317C17.5075 5.64713 17.5075 6.6311 17.5075 7.61506C17.5075 8.21062 17.3817 9.09101 17.9854 9.42763C17.9854 9.42763 17.9854 9.42763 17.9854 9.40174C18.2118 9.53121 18.5136 9.53121 18.74 9.40174C18.7903 9.37584 18.8155 9.34995 18.8658 9.29816L18.8909 9.27227C19.2934 8.90975 19.1928 8.18473 19.1676 7.66685Z" fill="#79707A" fill-opacity="0.76"/>
<path d="M8.27641 13.9329C5.78617 14.2177 3.59777 15.9526 2.69222 18.3866C2.49099 18.9304 3.22046 19.267 3.57261 18.9045C4.30208 18.2054 4.88062 17.4027 5.6604 16.7553C6.41502 16.108 7.29541 15.7455 8.27641 15.6419C9.98688 15.4606 11.6219 16.1857 12.779 17.4286C10.6912 17.4286 8.62857 17.4545 6.54079 17.4545C5.3837 17.4545 5.3837 19.2929 6.54079 19.2929C9.20711 19.2929 11.8986 19.2929 14.5649 19.267C15.2441 19.267 15.6717 18.4902 15.3447 17.8688C13.9109 15.3312 11.144 13.6222 8.27641 13.9329Z" fill="#E0DBDC"/>
<path d="M6.44025 10.0214C7.24518 8.72672 6.76726 7.22488 5.73594 6.24092C5.40894 5.93019 5.10709 5.9043 4.85555 6.05966C4.42793 5.74894 3.8997 5.61947 3.27085 5.67125C2.46592 5.74894 1.76161 6.21502 1.28369 6.88826C0.227217 8.3901 0.780605 10.5393 2.36531 11.3679C3.8997 12.1447 5.55986 11.4456 6.44025 10.0214ZM2.76777 7.89812C3.11993 7.30256 3.77393 7.22488 4.42793 7.19899C4.5034 7.40614 4.65432 7.5874 4.95617 7.63918C5.55986 7.71687 5.50956 8.8303 5.28317 9.21871C4.85555 9.91784 3.97516 10.2027 3.296 9.78837C2.61685 9.37407 2.34015 8.59726 2.76777 7.89812Z" fill="#E0DBDC"/>
<path d="M15.4957 6.24092C15.1687 5.93019 14.8669 5.9043 14.6153 6.05966C14.1877 5.74894 13.6595 5.61947 13.0306 5.67125C12.2257 5.74894 11.5214 6.21502 11.0435 6.88826C9.98698 8.3901 10.5404 10.5393 12.1251 11.3679C13.6595 12.1447 15.3196 11.4456 16.2 10.0214C17.0301 8.72672 16.527 7.22488 15.4957 6.24092ZM15.0429 9.21871C14.6153 9.91784 13.7349 10.2027 13.0558 9.78837C12.4018 9.37407 12.1251 8.62315 12.5527 7.92402C12.9048 7.32846 13.5589 7.25078 14.2129 7.22488C14.2883 7.43203 14.4392 7.61329 14.7411 7.66508C15.3196 7.71687 15.2693 8.8303 15.0429 9.21871Z" fill="#E0DBDC"/>
</svg>
