<svg width="20" height="14" viewBox="0 0 20 14" fill="none" xmlns="http://www.w3.org/2000/svg">
<path d="M4.57712 2.37621V3.03174C4.57712 3.7419 4.52406 4.47937 4.65672 5.18953C4.81592 6.09089 6.08953 5.81775 6.1426 4.97102C6.16913 4.39743 6.063 3.82384 6.03646 3.27757C6.00993 3.00443 6.00993 2.7586 5.9834 2.48546C5.9834 2.43084 5.9834 2.40352 5.95686 2.34889C6.5406 2.34889 7.0978 2.32158 7.655 2.21233C8.39794 2.07576 8.42447 0.737379 7.655 0.628123C6.56713 0.46424 5.45273 0.60081 4.33832 0.628123C3.27698 0.655437 2.08298 0.628123 1.10124 1.01052C0.570575 1.20171 0.517508 1.99382 1.10124 2.1577C2.13605 2.48546 3.30352 2.40352 4.36486 2.37621H4.57712Z" fill="#E0DBDC"/>
<path d="M18.7722 0.628123C17.6843 0.46424 16.5699 0.60081 15.4555 0.628123C14.3942 0.655437 13.2002 0.628123 12.2184 1.01052C11.6878 1.20171 11.6347 1.99382 12.2184 2.1577C13.2267 2.48546 14.4207 2.40352 15.4555 2.37621H15.6678V3.03174C15.6678 3.7419 15.6147 4.47937 15.7474 5.18953C15.9066 6.09089 17.1802 5.81775 17.2333 4.97102C17.2598 4.39743 17.1537 3.82384 17.1271 3.27757C17.1006 3.00443 17.1006 2.7586 17.0741 2.48546C17.0741 2.43084 17.0741 2.40352 17.0475 2.34889C17.6313 2.34889 18.1885 2.32158 18.7457 2.21233C19.5151 2.07576 19.5417 0.737379 18.7722 0.628123Z" fill="#E0DBDC"/>
<path d="M16.4103 11.0635C14.1815 10.7631 11.9527 10.5719 9.69738 10.6265C8.60951 10.6538 7.54817 10.7357 6.4603 10.8723C5.5051 11.0089 4.15189 11.0908 3.35589 11.719C3.06402 11.9649 3.09056 12.3746 3.46202 12.5385C4.33763 12.8935 5.53163 12.675 6.4603 12.6477C7.46857 12.6204 8.50338 12.5931 9.51165 12.5931C11.6343 12.6204 13.757 12.757 15.8531 13.0574C16.4103 13.1394 16.941 12.9208 17.1002 12.3199C17.2594 11.8556 16.941 11.1455 16.4103 11.0635Z" fill="#E0DBDC"/>
</svg>
