<svg width="19" height="14" viewBox="0 0 19 14" fill="none" xmlns="http://www.w3.org/2000/svg">
<path d="M3.96125 2.52799V3.17281C3.96125 3.87136 3.90905 4.59679 4.03955 5.29534C4.19615 6.18197 5.44894 5.9133 5.50114 5.0804C5.52724 4.51619 5.42284 3.95197 5.39674 3.41462C5.37064 3.14594 5.37064 2.90413 5.34454 2.63546C5.34454 2.58172 5.34454 2.55486 5.31844 2.50112C5.89264 2.50112 6.44073 2.47425 6.98883 2.36678C7.71963 2.23245 7.74573 0.915938 6.98883 0.808468C5.91874 0.647263 4.82254 0.781601 3.72635 0.808468C2.68235 0.835336 1.50786 0.808468 0.542165 1.18461C0.0201678 1.37269 -0.032032 2.15184 0.542165 2.31305C1.56006 2.63546 2.70845 2.55486 3.75245 2.52799H3.96125Z" fill="#E0DBDC"/>
<path d="M17.9254 0.808468C16.8553 0.647263 15.7591 0.781601 14.6629 0.808468C13.6189 0.835336 12.4444 0.808468 11.4787 1.18461C10.9567 1.37269 10.9045 2.15184 11.4787 2.31305C12.4705 2.63546 13.645 2.55486 14.6629 2.52799H14.8717V3.17281C14.8717 3.87136 14.8195 4.59679 14.95 5.29534C15.1066 6.18197 16.3594 5.9133 16.4116 5.0804C16.4377 4.51619 16.3333 3.95197 16.3072 3.41462C16.2811 3.14594 16.2811 2.90413 16.255 2.63546C16.255 2.58172 16.255 2.55486 16.2289 2.50112C16.8031 2.50112 17.3512 2.47425 17.8993 2.36678C18.6562 2.23245 18.6823 0.915938 17.9254 0.808468Z" fill="#E0DBDC"/>
<path fill-rule="evenodd" clip-rule="evenodd" d="M2.60831 11.243C2.72951 10.8767 3.12468 10.678 3.49095 10.7992C4.70297 11.2003 6.78229 11.6892 9.02556 11.8314C11.2823 11.9745 13.6114 11.7604 15.3906 10.8417C15.7334 10.6647 16.1548 10.7991 16.3318 11.1419C16.5088 11.4847 16.3744 11.9061 16.0316 12.0831C13.9239 13.1714 11.2967 13.3753 8.93716 13.2257C6.5641 13.0753 4.36704 12.5607 3.05204 12.1256C2.68577 12.0044 2.48711 11.6092 2.60831 11.243Z" fill="#E0DBDC"/>
</svg>
