<svg width="90" height="79" viewBox="0 0 90 79" fill="none" xmlns="http://www.w3.org/2000/svg">
<mask id="mask0" mask-type="alpha" maskUnits="userSpaceOnUse" x="0" y="0" width="90" height="79">
<rect x="0.730957" y="0.710144" width="88.5384" height="78.2784" fill="#C4C4C4"/>
</mask>
<g mask="url(#mask0)">
<path d="M64.9143 71.253L87.1857 77.2407C87.3771 77.2922 87.5521 77.0643 87.4598 76.8838L55.0839 13.5319C54.9662 13.3014 54.6165 13.4597 54.6628 13.7225L64.7672 71.0867C64.7817 71.169 64.8379 71.2325 64.9143 71.253Z" fill="#E0DBDC"/>
<path d="M51.257 25.2375L46.0538 2.08977C46.0091 1.89086 45.7447 1.84812 45.6396 2.02281L8.76094 63.3249C8.6268 63.5479 8.91369 63.7837 9.10647 63.6089L51.1882 25.4546C51.2486 25.3999 51.2748 25.317 51.257 25.2375Z" fill="#E0DBDC"/>
<path d="M20.0338 60.1001L2.56074 76.1496C2.4106 76.2875 2.50536 76.538 2.70919 76.542L74.2353 77.9539C74.4955 77.959 74.5569 77.5928 74.3092 77.5128L20.2562 60.0515C20.1787 60.0265 20.0938 60.0451 20.0338 60.1001Z" fill="#E0DBDC"/>
</g>
</svg>
