<svg width="24" height="23" viewBox="0 0 24 23" fill="none" xmlns="http://www.w3.org/2000/svg">
<path d="M11.9996 0.00976562C5.78646 0.00976562 0.731689 5.06453 0.731689 11.2776C0.731689 17.4907 5.78646 22.5455 11.9996 22.5455C18.2127 22.5455 23.2674 17.4907 23.2674 11.2776C23.2674 5.06453 18.2127 0.00976562 11.9996 0.00976562ZM11.9996 20.2919C7.0293 20.2919 2.98526 16.2479 2.98526 11.2776C2.98526 6.30738 7.0293 2.26334 11.9996 2.26334C16.9698 2.26334 21.0139 6.30738 21.0139 11.2776C21.0139 16.2479 16.9698 20.2919 11.9996 20.2919Z" fill="#EEEEEE"/>
<path d="M11.9996 5.64453C10.1359 5.64453 8.6192 7.16119 8.6192 9.02489C8.6192 9.64688 9.124 10.1517 9.74599 10.1517C10.368 10.1517 10.8728 9.64688 10.8728 9.02489C10.8728 8.40403 11.3787 7.89811 11.9996 7.89811C12.6204 7.89811 13.1263 8.40403 13.1263 9.02489C13.1263 9.49476 12.9878 9.6266 12.341 10.0345C11.8835 10.323 11.3156 10.6813 10.9888 11.3438C10.7578 11.8126 10.8345 12.3669 10.9009 12.6565C11.0181 13.1715 11.4677 13.4915 11.9725 13.4915C12.0627 13.4915 12.1539 13.4813 12.2452 13.4611C12.7973 13.3349 13.1556 12.7872 13.1128 12.234C13.2266 12.1405 13.408 12.0267 13.5421 11.9421C14.2295 11.5083 15.3799 10.7827 15.3799 9.02489C15.3799 7.16119 13.8633 5.64453 11.9996 5.64453Z" fill="#EEEEEE"/>
<path d="M11.9997 16.9118C12.622 16.9118 13.1264 16.4073 13.1264 15.785C13.1264 15.1627 12.622 14.6582 11.9997 14.6582C11.3773 14.6582 10.8729 15.1627 10.8729 15.785C10.8729 16.4073 11.3773 16.9118 11.9997 16.9118Z" fill="#EEEEEE"/>
</svg>
