<svg width="20" height="23" viewBox="0 0 20 23" fill="none" xmlns="http://www.w3.org/2000/svg">
<path d="M16.7604 0H3.23893C1.99608 0 0.985352 1.01073 0.985352 2.25357V20.2822C0.985352 21.525 1.99608 22.5357 3.23893 22.5357H16.7604C18.0032 22.5357 19.0139 21.525 19.0139 20.2822V2.25357C19.0139 1.01073 18.0032 0 16.7604 0ZM16.757 20.2822H3.23893V2.25357H16.7604L16.757 20.2822Z" fill="#EEEEEE"/>
<path d="M6.6191 6.76139H9.99946C10.6226 6.76139 11.1262 6.25771 11.1262 5.6346C11.1262 5.01149 10.6226 4.50781 9.99946 4.50781H6.6191C5.99598 4.50781 5.49231 5.01149 5.49231 5.6346C5.49231 6.25771 5.99598 6.76139 6.6191 6.76139Z" fill="#EEEEEE"/>
<path d="M6.6191 14.6481H13.3798C14.0029 14.6481 14.5066 14.1444 14.5066 13.5213C14.5066 12.8982 14.0029 12.3945 13.3798 12.3945H6.6191C5.99598 12.3945 5.49231 12.8982 5.49231 13.5213C5.49231 14.1444 5.99598 14.6481 6.6191 14.6481Z" fill="#EEEEEE"/>
<path d="M6.6191 11.2672H13.3798C14.0029 11.2672 14.5066 10.7636 14.5066 10.1405C14.5066 9.51735 14.0029 9.01367 13.3798 9.01367H6.6191C5.99598 9.01367 5.49231 9.51735 5.49231 10.1405C5.49231 10.7636 5.99598 11.2672 6.6191 11.2672Z" fill="#EEEEEE"/>
<path d="M6.6191 18.029H13.3798C14.0029 18.029 14.5066 17.5253 14.5066 16.9022C14.5066 16.2791 14.0029 15.7754 13.3798 15.7754H6.6191C5.99598 15.7754 5.49231 16.2791 5.49231 16.9022C5.49231 17.5253 5.99598 18.029 6.6191 18.029Z" fill="#EEEEEE"/>
</svg>
