<svg width="24" height="24" viewBox="0 0 24 24" fill="none" xmlns="http://www.w3.org/2000/svg">
<path d="M6.36579 15.3873C8.85148 15.3873 10.8729 13.3659 10.8729 10.8802C10.8729 8.3945 8.85148 6.37305 6.36579 6.37305C3.8801 6.37305 1.85864 8.3945 1.85864 10.8802C1.85864 13.3659 3.8801 15.3873 6.36579 15.3873ZM6.36579 8.62662C7.60864 8.62662 8.61936 9.63735 8.61936 10.8802C8.61936 12.123 7.60864 13.1338 6.36579 13.1338C5.12294 13.1338 4.11222 12.123 4.11222 10.8802C4.11222 9.63735 5.12294 8.62662 6.36579 8.62662Z" fill="#EEEEEE"/>
<path d="M7.49217 16.5137H5.23859C2.7529 16.5137 0.731445 18.5351 0.731445 21.0208V22.1476C0.731445 22.7707 1.23625 23.2744 1.85823 23.2744H10.8725C11.4945 23.2744 11.9993 22.7707 11.9993 22.1476V21.0208C11.9993 18.5351 9.97786 16.5137 7.49217 16.5137ZM2.98502 21.0208C2.98502 19.778 3.99575 18.7672 5.23859 18.7672H7.49217C8.73501 18.7672 9.74574 19.778 9.74574 21.0208H2.98502Z" fill="#EEEEEE"/>
<path d="M18.76 10.8789H16.5064C14.0207 10.8789 11.9993 12.9004 11.9993 15.3861V16.5128C11.9993 17.136 12.5041 17.6396 13.1261 17.6396H22.1404C22.7623 17.6396 23.2671 17.136 23.2671 16.5128V15.3861C23.2671 12.9004 21.2457 10.8789 18.76 10.8789ZM14.2528 15.3861C14.2528 14.1432 15.2636 13.1325 16.5064 13.1325H18.76C20.0028 13.1325 21.0136 14.1432 21.0136 15.3861H14.2528Z" fill="#EEEEEE"/>
<path d="M17.6336 9.75258C20.1193 9.75258 22.1408 7.73112 22.1408 5.24543C22.1408 2.75974 20.1193 0.738281 17.6336 0.738281C15.1479 0.738281 13.1265 2.75974 13.1265 5.24543C13.1265 7.73112 15.1479 9.75258 17.6336 9.75258ZM17.6336 2.99186C18.8765 2.99186 19.8872 4.00258 19.8872 5.24543C19.8872 6.48828 18.8765 7.499 17.6336 7.499C16.3908 7.499 15.38 6.48828 15.38 5.24543C15.38 4.00258 16.3908 2.99186 17.6336 2.99186Z" fill="#EEEEEE"/>
</svg>
