<svg width="24" height="23" viewBox="0 0 24 23" fill="none" xmlns="http://www.w3.org/2000/svg">
<path d="M11.9997 7.00977C11.3765 7.00977 10.8729 7.51344 10.8729 8.13655V13.7705C10.8729 14.3936 11.3765 14.8973 11.9997 14.8973C12.6228 14.8973 13.1264 14.3936 13.1264 13.7705V8.13655C13.1264 7.51344 12.6228 7.00977 11.9997 7.00977Z" fill="#EEEEEE"/>
<path d="M11.9997 16.0234C11.7067 16.0234 11.4137 16.1474 11.1996 16.3502C10.9957 16.5643 10.8729 16.8573 10.8729 17.1502C10.8729 17.4432 10.9957 17.7362 11.1996 17.9502C11.6278 18.3672 12.3715 18.3672 12.7997 17.9502C13.0025 17.7362 13.1264 17.4432 13.1264 17.1502C13.1264 16.8573 13.0025 16.5643 12.7997 16.3502C12.5856 16.1474 12.2926 16.0234 11.9997 16.0234Z" fill="#EEEEEE"/>
<path d="M22.7425 17.1268L15.0848 2.46616C14.0606 0.507808 12.7129 0.214844 11.9997 0.214844C11.2864 0.214844 9.9388 0.507809 8.91342 2.46729L1.25803 17.1257C0.523363 18.5308 0.481671 19.9618 1.14084 21.0514C1.80114 22.1432 3.09018 22.7697 4.67557 22.7697H19.3238C20.9092 22.7697 22.1982 22.1432 22.8585 21.0525C23.5188 19.9618 23.4771 18.5308 22.7425 17.1268ZM20.9306 19.8852C20.6883 20.2863 20.1013 20.5162 19.3238 20.5162H4.67557C3.89809 20.5162 3.31103 20.2863 3.06877 19.8852C2.82539 19.4852 2.89412 18.8598 3.25469 18.1702L10.9101 3.51182C11.3135 2.74335 11.7371 2.46842 11.9997 2.46842C12.2622 2.46842 12.6859 2.74223 13.0882 3.5107L20.7458 18.1713C21.1053 18.8598 21.174 19.4852 20.9306 19.8852Z" fill="#EEEEEE"/>
</svg>
