<svg width="20" height="24" viewBox="0 0 20 24" fill="none" xmlns="http://www.w3.org/2000/svg">
<path d="M16.7604 13.4448V8.74493C16.7604 5.40175 14.3186 2.62422 11.1264 2.08562V1.98421C11.1264 1.3611 10.6216 0.857422 9.99965 0.857422C9.37766 0.857422 8.87286 1.3611 8.87286 1.98421V2.08562C5.68067 2.62422 3.23893 5.40175 3.23893 8.74493V13.4448C1.92735 13.9101 0.985352 15.1631 0.985352 16.6324V18.886C0.985352 19.5091 1.49015 20.0128 2.11214 20.0128H17.8872C18.5103 20.0128 19.0139 19.5091 19.0139 18.886V16.6324C19.0139 15.1631 18.072 13.9101 16.7604 13.4448ZM16.7604 17.7592H3.23893V16.6324C3.23893 16.0105 3.74485 15.5057 4.36571 15.5057C4.9877 15.5057 5.4925 15.002 5.4925 14.3789V8.74493C5.4925 6.25924 7.51396 4.23778 9.99965 4.23778C12.4853 4.23778 14.5068 6.25924 14.5068 8.74493V14.3789C14.5068 15.002 15.0105 15.5057 15.6336 15.5057C16.2556 15.5057 16.7604 16.0105 16.7604 16.6324V17.7592Z" fill="#EEEEEE"/>
<path d="M11.1263 21.1387H8.8727C8.25071 21.1387 7.74591 21.6423 7.74591 22.2655C7.74591 22.8886 8.25071 23.3922 8.8727 23.3922H11.1263C11.7494 23.3922 12.2531 22.8886 12.2531 22.2655C12.2531 21.6423 11.7494 21.1387 11.1263 21.1387Z" fill="#EEEEEE"/>
</svg>
