<svg width="25" height="25" viewBox="0 0 25 25" fill="none" xmlns="http://www.w3.org/2000/svg">
<path d="M23.2903 19.1196C23.9311 17.8347 24.2674 16.4118 24.2674 14.9764C24.2674 11.2586 22.1183 7.99328 18.7721 6.4872C17.3082 3.23789 14.0463 0.966797 10.2577 0.966797C5.10787 0.966797 0.917969 5.15669 0.917969 10.3066C0.917969 11.7408 1.25316 13.1625 1.89048 14.4474L0.953312 18.1961C0.852983 18.594 0.970414 19.0147 1.26 19.3043C1.54617 19.5905 1.97485 19.7113 2.36819 19.611L6.11686 18.6738C6.22175 18.7263 6.33234 18.7627 6.43951 18.8118C7.94788 22.1637 11.212 24.3162 14.9276 24.3162C16.363 24.3162 17.7859 23.9799 19.0708 23.3391L22.8149 24.2809C23.2094 24.3801 23.638 24.2615 23.9254 23.9742C24.2161 23.6835 24.3324 23.2628 24.232 22.8637L23.2903 19.1196ZM6.83855 16.4153C6.58203 16.2705 6.26964 16.2271 5.98347 16.3013L3.69071 16.8736L4.26305 14.5808C4.33601 14.2924 4.29497 13.9857 4.14904 13.7257C3.56302 12.6826 3.25291 11.5003 3.25291 10.3066C3.25291 6.44388 6.39505 3.30174 10.2577 3.30174C14.1204 3.30174 17.2626 6.44388 17.2626 10.3066C17.2626 14.1693 14.1204 17.3114 10.2577 17.3114C9.06404 17.3114 7.88175 17.0013 6.83855 16.4153V16.4153ZM20.9166 19.2541L21.4912 21.5401L19.2053 20.9654C18.9134 20.8925 18.6067 20.9335 18.3457 21.0806C17.3036 21.67 16.1213 21.9813 14.9276 21.9813C12.8652 21.9813 10.992 21.0897 9.69224 19.6133C15.2195 19.9485 19.9019 15.266 19.569 9.73651C21.0432 11.0351 21.9324 12.9106 21.9324 14.9764C21.9324 16.1701 21.6212 17.3524 21.0318 18.3945C20.8847 18.6556 20.8436 18.9634 20.9166 19.2541Z" fill="#EEEEEE"/>
</svg>
