<svg width="132" height="47" viewBox="0 0 132 47" fill="none" xmlns="http://www.w3.org/2000/svg">
<path d="M13.9562 42.084C13.2282 42.084 12.5282 41.9673 11.8562 41.734C11.1935 41.5007 10.6802 41.1927 10.3162 40.81L10.7222 40.012C11.0769 40.3667 11.5482 40.656 12.1362 40.88C12.7242 41.0947 13.3309 41.202 13.9562 41.202C14.8335 41.202 15.4915 41.0433 15.9302 40.726C16.3689 40.3993 16.5882 39.9793 16.5882 39.466C16.5882 39.074 16.4669 38.7613 16.2242 38.528C15.9909 38.2947 15.7015 38.1173 15.3562 37.996C15.0109 37.8653 14.5302 37.7253 13.9142 37.576C13.1769 37.3893 12.5889 37.212 12.1502 37.044C11.7115 36.8667 11.3335 36.6007 11.0162 36.246C10.7082 35.8913 10.5542 35.4107 10.5542 34.804C10.5542 34.3093 10.6849 33.8613 10.9462 33.46C11.2075 33.0493 11.6089 32.7227 12.1502 32.48C12.6915 32.2373 13.3635 32.116 14.1662 32.116C14.7262 32.116 15.2722 32.1953 15.8042 32.354C16.3455 32.5033 16.8122 32.7133 17.2042 32.984L16.8542 33.81C16.4435 33.5393 16.0049 33.3387 15.5382 33.208C15.0715 33.068 14.6142 32.998 14.1662 32.998C13.3075 32.998 12.6589 33.166 12.2202 33.502C11.7909 33.8287 11.5762 34.2533 11.5762 34.776C11.5762 35.168 11.6929 35.4853 11.9262 35.728C12.1689 35.9613 12.4675 36.1433 12.8222 36.274C13.1862 36.3953 13.6715 36.5307 14.2782 36.68C14.9969 36.8573 15.5755 37.0347 16.0142 37.212C16.4622 37.38 16.8402 37.6413 17.1482 37.996C17.4562 38.3413 17.6102 38.8127 17.6102 39.41C17.6102 39.9047 17.4749 40.3573 17.2042 40.768C16.9429 41.1693 16.5369 41.4913 15.9862 41.734C15.4355 41.9673 14.7589 42.084 13.9562 42.084ZM22.2335 34.58C23.1948 34.58 23.9322 34.8227 24.4455 35.308C24.9588 35.784 25.2155 36.4933 25.2155 37.436V42H24.2635V40.852C24.0395 41.2347 23.7082 41.5333 23.2695 41.748C22.8402 41.9627 22.3268 42.07 21.7295 42.07C20.9082 42.07 20.2548 41.874 19.7695 41.482C19.2842 41.09 19.0415 40.572 19.0415 39.928C19.0415 39.3027 19.2655 38.7987 19.7135 38.416C20.1708 38.0333 20.8942 37.842 21.8835 37.842H24.2215V37.394C24.2215 36.7593 24.0442 36.2787 23.6895 35.952C23.3348 35.616 22.8168 35.448 22.1355 35.448C21.6688 35.448 21.2208 35.5273 20.7915 35.686C20.3622 35.8353 19.9935 36.0453 19.6855 36.316L19.2375 35.574C19.6108 35.2567 20.0588 35.014 20.5815 34.846C21.1042 34.6687 21.6548 34.58 22.2335 34.58ZM21.8835 41.286C22.4435 41.286 22.9242 41.16 23.3255 40.908C23.7268 40.6467 24.0255 40.2733 24.2215 39.788V38.584H21.9115C20.6515 38.584 20.0215 39.0227 20.0215 39.9C20.0215 40.3293 20.1848 40.67 20.5115 40.922C20.8382 41.1647 21.2955 41.286 21.8835 41.286ZM30.3513 32.382C29.922 32.382 29.5953 32.4987 29.3713 32.732C29.1566 32.9653 29.0493 33.3107 29.0493 33.768V34.636H31.3173V35.476H29.0773V42H28.0833V35.476H26.7673V34.636H28.0833V33.726C28.0833 33.054 28.2746 32.522 28.6573 32.13C29.0493 31.738 29.6 31.542 30.3093 31.542C30.5893 31.542 30.86 31.584 31.1213 31.668C31.3826 31.7427 31.602 31.8547 31.7793 32.004L31.4433 32.746C31.154 32.5033 30.79 32.382 30.3513 32.382ZM36.5374 41.552C36.3508 41.72 36.1174 41.8507 35.8374 41.944C35.5668 42.028 35.2821 42.07 34.9834 42.07C34.2928 42.07 33.7608 41.8833 33.3874 41.51C33.0141 41.1367 32.8274 40.6093 32.8274 39.928V35.476H31.5114V34.636H32.8274V33.026H33.8214V34.636H36.0614V35.476H33.8214V39.872C33.8214 40.3107 33.9288 40.6467 34.1434 40.88C34.3674 41.104 34.6848 41.216 35.0954 41.216C35.3008 41.216 35.4968 41.1833 35.6834 41.118C35.8794 41.0527 36.0474 40.9593 36.1874 40.838L36.5374 41.552ZM44.4992 38.626H38.3392C38.3952 39.3913 38.6892 40.012 39.2212 40.488C39.7532 40.9547 40.4252 41.188 41.2372 41.188C41.6945 41.188 42.1145 41.1087 42.4972 40.95C42.8798 40.782 43.2112 40.5393 43.4912 40.222L44.0512 40.866C43.7245 41.258 43.3138 41.5567 42.8192 41.762C42.3338 41.9673 41.7972 42.07 41.2092 42.07C40.4532 42.07 39.7812 41.9113 39.1932 41.594C38.6145 41.2673 38.1618 40.8193 37.8352 40.25C37.5085 39.6807 37.3452 39.0367 37.3452 38.318C37.3452 37.5993 37.4992 36.9553 37.8072 36.386C38.1245 35.8167 38.5538 35.3733 39.0952 35.056C39.6458 34.7387 40.2618 34.58 40.9432 34.58C41.6245 34.58 42.2358 34.7387 42.7772 35.056C43.3185 35.3733 43.7432 35.8167 44.0512 36.386C44.3592 36.946 44.5132 37.59 44.5132 38.318L44.4992 38.626ZM40.9432 35.434C40.2338 35.434 39.6365 35.6627 39.1512 36.12C38.6752 36.568 38.4045 37.156 38.3392 37.884H43.5612C43.4958 37.156 43.2205 36.568 42.7352 36.12C42.2592 35.6627 41.6618 35.434 40.9432 35.434ZM49.5884 42.07C48.8604 42.07 48.2071 41.9113 47.6284 41.594C47.0591 41.2767 46.6111 40.8333 46.2844 40.264C45.9577 39.6853 45.7944 39.0367 45.7944 38.318C45.7944 37.5993 45.9577 36.9553 46.2844 36.386C46.6111 35.8167 47.0591 35.3733 47.6284 35.056C48.2071 34.7387 48.8604 34.58 49.5884 34.58C50.2231 34.58 50.7877 34.706 51.2824 34.958C51.7864 35.2007 52.1831 35.56 52.4724 36.036L51.7304 36.54C51.4877 36.176 51.1797 35.9053 50.8064 35.728C50.4331 35.5413 50.0271 35.448 49.5884 35.448C49.0564 35.448 48.5757 35.5693 48.1464 35.812C47.7264 36.0453 47.3951 36.3813 47.1524 36.82C46.9191 37.2587 46.8024 37.758 46.8024 38.318C46.8024 38.8873 46.9191 39.3913 47.1524 39.83C47.3951 40.2593 47.7264 40.5953 48.1464 40.838C48.5757 41.0713 49.0564 41.188 49.5884 41.188C50.0271 41.188 50.4331 41.0993 50.8064 40.922C51.1797 40.7447 51.4877 40.474 51.7304 40.11L52.4724 40.614C52.1831 41.09 51.7864 41.454 51.2824 41.706C50.7784 41.9487 50.2137 42.07 49.5884 42.07ZM58.0677 34.58C58.9917 34.58 59.7244 34.8507 60.2657 35.392C60.8164 35.924 61.0917 36.7033 61.0917 37.73V42H60.0977V37.828C60.0977 37.0627 59.9064 36.4793 59.5237 36.078C59.141 35.6767 58.595 35.476 57.8857 35.476C57.0924 35.476 56.4624 35.714 55.9957 36.19C55.5384 36.6567 55.3097 37.3053 55.3097 38.136V42H54.3157V31.612H55.3097V35.924C55.5804 35.4947 55.9537 35.1633 56.4297 34.93C56.9057 34.6967 57.4517 34.58 58.0677 34.58ZM71.2484 34.58C71.939 34.58 72.5644 34.7387 73.1244 35.056C73.6844 35.364 74.123 35.8027 74.4404 36.372C74.7577 36.9413 74.9164 37.59 74.9164 38.318C74.9164 39.0553 74.7577 39.7087 74.4404 40.278C74.123 40.8473 73.6844 41.2907 73.1244 41.608C72.5737 41.916 71.9484 42.07 71.2484 42.07C70.651 42.07 70.1097 41.9487 69.6244 41.706C69.1484 41.454 68.7564 41.09 68.4484 40.614V44.716H67.4544V34.636H68.4064V36.092C68.705 35.6067 69.097 35.2333 69.5824 34.972C70.077 34.7107 70.6324 34.58 71.2484 34.58ZM71.1784 41.188C71.6917 41.188 72.1584 41.0713 72.5784 40.838C72.9984 40.5953 73.325 40.2547 73.5584 39.816C73.801 39.3773 73.9224 38.878 73.9224 38.318C73.9224 37.758 73.801 37.2633 73.5584 36.834C73.325 36.3953 72.9984 36.0547 72.5784 35.812C72.1584 35.5693 71.6917 35.448 71.1784 35.448C70.6557 35.448 70.1844 35.5693 69.7644 35.812C69.3537 36.0547 69.027 36.3953 68.7844 36.834C68.551 37.2633 68.4344 37.758 68.4344 38.318C68.4344 38.878 68.551 39.3773 68.7844 39.816C69.027 40.2547 69.3537 40.5953 69.7644 40.838C70.1844 41.0713 70.6557 41.188 71.1784 41.188ZM77.8946 36.078C78.128 35.5833 78.4733 35.21 78.9306 34.958C79.3973 34.706 79.9713 34.58 80.6526 34.58V35.546L80.4146 35.532C79.64 35.532 79.0333 35.77 78.5946 36.246C78.156 36.722 77.9366 37.3893 77.9366 38.248V42H76.9426V34.636H77.8946V36.078ZM85.394 42.07C84.6847 42.07 84.0454 41.9113 83.476 41.594C82.9067 41.2673 82.4587 40.8193 82.132 40.25C81.8054 39.6807 81.642 39.0367 81.642 38.318C81.642 37.5993 81.8054 36.9553 82.132 36.386C82.4587 35.8167 82.9067 35.3733 83.476 35.056C84.0454 34.7387 84.6847 34.58 85.394 34.58C86.1034 34.58 86.7427 34.7387 87.312 35.056C87.8814 35.3733 88.3247 35.8167 88.642 36.386C88.9687 36.9553 89.132 37.5993 89.132 38.318C89.132 39.0367 88.9687 39.6807 88.642 40.25C88.3247 40.8193 87.8814 41.2673 87.312 41.594C86.7427 41.9113 86.1034 42.07 85.394 42.07ZM85.394 41.188C85.9167 41.188 86.3834 41.0713 86.794 40.838C87.214 40.5953 87.5407 40.2547 87.774 39.816C88.0074 39.3773 88.124 38.878 88.124 38.318C88.124 37.758 88.0074 37.2587 87.774 36.82C87.5407 36.3813 87.214 36.0453 86.794 35.812C86.3834 35.5693 85.9167 35.448 85.394 35.448C84.8714 35.448 84.4 35.5693 83.98 35.812C83.5694 36.0453 83.2427 36.3813 83 36.82C82.7667 37.2587 82.65 37.758 82.65 38.318C82.65 38.878 82.7667 39.3773 83 39.816C83.2427 40.2547 83.5694 40.5953 83.98 40.838C84.4 41.0713 84.8714 41.188 85.394 41.188ZM97.8814 31.612V42H96.9294V40.544C96.6307 41.0387 96.2341 41.4167 95.7394 41.678C95.2541 41.9393 94.7034 42.07 94.0874 42.07C93.3967 42.07 92.7714 41.9113 92.2114 41.594C91.6514 41.2767 91.2127 40.8333 90.8954 40.264C90.5781 39.6947 90.4194 39.046 90.4194 38.318C90.4194 37.59 90.5781 36.9413 90.8954 36.372C91.2127 35.8027 91.6514 35.364 92.2114 35.056C92.7714 34.7387 93.3967 34.58 94.0874 34.58C94.6847 34.58 95.2214 34.706 95.6974 34.958C96.1827 35.2007 96.5794 35.56 96.8874 36.036V31.612H97.8814ZM94.1714 41.188C94.6847 41.188 95.1467 41.0713 95.5574 40.838C95.9774 40.5953 96.3041 40.2547 96.5374 39.816C96.7801 39.3773 96.9014 38.878 96.9014 38.318C96.9014 37.758 96.7801 37.2587 96.5374 36.82C96.3041 36.3813 95.9774 36.0453 95.5574 35.812C95.1467 35.5693 94.6847 35.448 94.1714 35.448C93.6487 35.448 93.1774 35.5693 92.7574 35.812C92.3467 36.0453 92.0201 36.3813 91.7774 36.82C91.5441 37.2587 91.4274 37.758 91.4274 38.318C91.4274 38.878 91.5441 39.3773 91.7774 39.816C92.0201 40.2547 92.3467 40.5953 92.7574 40.838C93.1774 41.0713 93.6487 41.188 94.1714 41.188ZM107.286 34.636V42H106.334V40.656C106.072 41.104 105.713 41.454 105.256 41.706C104.798 41.9487 104.276 42.07 103.688 42.07C102.726 42.07 101.966 41.804 101.406 41.272C100.855 40.7307 100.58 39.942 100.58 38.906V34.636H101.574V38.808C101.574 39.5827 101.765 40.1707 102.148 40.572C102.53 40.9733 103.076 41.174 103.786 41.174C104.56 41.174 105.172 40.9407 105.62 40.474C106.068 39.998 106.292 39.34 106.292 38.5V34.636H107.286ZM113.122 42.07C112.394 42.07 111.74 41.9113 111.162 41.594C110.592 41.2767 110.144 40.8333 109.818 40.264C109.491 39.6853 109.328 39.0367 109.328 38.318C109.328 37.5993 109.491 36.9553 109.818 36.386C110.144 35.8167 110.592 35.3733 111.162 35.056C111.74 34.7387 112.394 34.58 113.122 34.58C113.756 34.58 114.321 34.706 114.816 34.958C115.32 35.2007 115.716 35.56 116.006 36.036L115.264 36.54C115.021 36.176 114.713 35.9053 114.34 35.728C113.966 35.5413 113.56 35.448 113.122 35.448C112.59 35.448 112.109 35.5693 111.68 35.812C111.26 36.0453 110.928 36.3813 110.686 36.82C110.452 37.2587 110.336 37.758 110.336 38.318C110.336 38.8873 110.452 39.3913 110.686 39.83C110.928 40.2593 111.26 40.5953 111.68 40.838C112.109 41.0713 112.59 41.188 113.122 41.188C113.56 41.188 113.966 41.0993 114.34 40.922C114.713 40.7447 115.021 40.474 115.264 40.11L116.006 40.614C115.716 41.09 115.32 41.454 114.816 41.706C114.312 41.9487 113.747 42.07 113.122 42.07ZM121.918 41.552C121.732 41.72 121.498 41.8507 121.218 41.944C120.948 42.028 120.663 42.07 120.364 42.07C119.674 42.07 119.142 41.8833 118.768 41.51C118.395 41.1367 118.208 40.6093 118.208 39.928V35.476H116.892V34.636H118.208V33.026H119.202V34.636H121.442V35.476H119.202V39.872C119.202 40.3107 119.31 40.6467 119.524 40.88C119.748 41.104 120.066 41.216 120.476 41.216C120.682 41.216 120.878 41.1833 121.064 41.118C121.26 41.0527 121.428 40.9593 121.568 40.838L121.918 41.552Z" fill="#56595A"/>
<mask id="mask0" mask-type="alpha" maskUnits="userSpaceOnUse" x="53" y="0" width="26" height="24">
<rect x="53.1455" y="0.449219" width="25.7095" height="22.7303" fill="#56595A"/>
</mask>
<g mask="url(#mask0)">
<path d="M71.7832 20.9338L78.2503 22.6725C78.3058 22.6874 78.3566 22.6213 78.3299 22.5688L68.9286 4.17288C68.8944 4.10597 68.7929 4.15193 68.8063 4.22824L71.7404 20.8855C71.7447 20.9094 71.761 20.9278 71.7832 20.9338Z" fill="#56595A"/>
<path d="M67.817 7.57316L66.3061 0.851563C66.2931 0.793806 66.2163 0.781395 66.1858 0.832122L55.4771 18.6329C55.4381 18.6976 55.5214 18.7661 55.5774 18.7153L67.797 7.63618C67.8145 7.6203 67.8221 7.59622 67.817 7.57316Z" fill="#56595A"/>
<path d="M58.7506 17.6965L53.6769 22.3569C53.6333 22.3969 53.6608 22.4697 53.72 22.4709L74.4895 22.8808C74.5651 22.8823 74.5829 22.776 74.511 22.7528L58.8152 17.6824C58.7927 17.6751 58.7681 17.6805 58.7506 17.6965Z" fill="#56595A"/>
</g>
</svg>
