<svg width="164" height="23" viewBox="0 0 164 23" fill="none" xmlns="http://www.w3.org/2000/svg">
<path d="M36.3397 18.084C35.6117 18.084 34.9117 17.9673 34.2397 17.734C33.5771 17.5007 33.0637 17.1927 32.6997 16.81L33.1057 16.012C33.4604 16.3667 33.9317 16.656 34.5197 16.88C35.1077 17.0947 35.7144 17.202 36.3397 17.202C37.2171 17.202 37.8751 17.0433 38.3137 16.726C38.7524 16.3993 38.9717 15.9793 38.9717 15.466C38.9717 15.074 38.8504 14.7613 38.6077 14.528C38.3744 14.2947 38.0851 14.1173 37.7397 13.996C37.3944 13.8653 36.9137 13.7253 36.2977 13.576C35.5604 13.3893 34.9724 13.212 34.5337 13.044C34.0951 12.8667 33.7171 12.6007 33.3997 12.246C33.0917 11.8913 32.9377 11.4107 32.9377 10.804C32.9377 10.3093 33.0684 9.86133 33.3297 9.46C33.5911 9.04933 33.9924 8.72267 34.5337 8.48C35.0751 8.23733 35.7471 8.116 36.5497 8.116C37.1097 8.116 37.6557 8.19533 38.1877 8.354C38.7291 8.50333 39.1957 8.71333 39.5877 8.984L39.2377 9.81C38.8271 9.53933 38.3884 9.33867 37.9217 9.208C37.4551 9.068 36.9977 8.998 36.5497 8.998C35.6911 8.998 35.0424 9.166 34.6037 9.502C34.1744 9.82867 33.9597 10.2533 33.9597 10.776C33.9597 11.168 34.0764 11.4853 34.3097 11.728C34.5524 11.9613 34.8511 12.1433 35.2057 12.274C35.5697 12.3953 36.0551 12.5307 36.6617 12.68C37.3804 12.8573 37.9591 13.0347 38.3977 13.212C38.8457 13.38 39.2237 13.6413 39.5317 13.996C39.8397 14.3413 39.9937 14.8127 39.9937 15.41C39.9937 15.9047 39.8584 16.3573 39.5877 16.768C39.3264 17.1693 38.9204 17.4913 38.3697 17.734C37.8191 17.9673 37.1424 18.084 36.3397 18.084ZM44.617 10.58C45.5784 10.58 46.3157 10.8227 46.829 11.308C47.3424 11.784 47.599 12.4933 47.599 13.436V18H46.647V16.852C46.423 17.2347 46.0917 17.5333 45.653 17.748C45.2237 17.9627 44.7104 18.07 44.113 18.07C43.2917 18.07 42.6384 17.874 42.153 17.482C41.6677 17.09 41.425 16.572 41.425 15.928C41.425 15.3027 41.649 14.7987 42.097 14.416C42.5544 14.0333 43.2777 13.842 44.267 13.842H46.605V13.394C46.605 12.7593 46.4277 12.2787 46.073 11.952C45.7184 11.616 45.2004 11.448 44.519 11.448C44.0524 11.448 43.6044 11.5273 43.175 11.686C42.7457 11.8353 42.377 12.0453 42.069 12.316L41.621 11.574C41.9944 11.2567 42.4424 11.014 42.965 10.846C43.4877 10.6687 44.0384 10.58 44.617 10.58ZM44.267 17.286C44.827 17.286 45.3077 17.16 45.709 16.908C46.1104 16.6467 46.409 16.2733 46.605 15.788V14.584H44.295C43.035 14.584 42.405 15.0227 42.405 15.9C42.405 16.3293 42.5684 16.67 42.895 16.922C43.2217 17.1647 43.679 17.286 44.267 17.286ZM52.7348 8.382C52.3055 8.382 51.9788 8.49867 51.7548 8.732C51.5402 8.96533 51.4328 9.31067 51.4328 9.768V10.636H53.7008V11.476H51.4608V18H50.4668V11.476H49.1508V10.636H50.4668V9.726C50.4668 9.054 50.6582 8.522 51.0408 8.13C51.4328 7.738 51.9835 7.542 52.6928 7.542C52.9728 7.542 53.2435 7.584 53.5048 7.668C53.7662 7.74267 53.9855 7.85467 54.1628 8.004L53.8268 8.746C53.5375 8.50333 53.1735 8.382 52.7348 8.382ZM58.921 17.552C58.7343 17.72 58.501 17.8507 58.221 17.944C57.9503 18.028 57.6656 18.07 57.367 18.07C56.6763 18.07 56.1443 17.8833 55.771 17.51C55.3976 17.1367 55.211 16.6093 55.211 15.928V11.476H53.895V10.636H55.211V9.026H56.205V10.636H58.445V11.476H56.205V15.872C56.205 16.3107 56.3123 16.6467 56.527 16.88C56.751 17.104 57.0683 17.216 57.479 17.216C57.6843 17.216 57.8803 17.1833 58.067 17.118C58.263 17.0527 58.431 16.9593 58.571 16.838L58.921 17.552ZM66.8827 14.626H60.7227C60.7787 15.3913 61.0727 16.012 61.6047 16.488C62.1367 16.9547 62.8087 17.188 63.6207 17.188C64.0781 17.188 64.4981 17.1087 64.8807 16.95C65.2634 16.782 65.5947 16.5393 65.8747 16.222L66.4347 16.866C66.1081 17.258 65.6974 17.5567 65.2027 17.762C64.7174 17.9673 64.1807 18.07 63.5927 18.07C62.8367 18.07 62.1647 17.9113 61.5767 17.594C60.9981 17.2673 60.5454 16.8193 60.2187 16.25C59.8921 15.6807 59.7287 15.0367 59.7287 14.318C59.7287 13.5993 59.8827 12.9553 60.1907 12.386C60.5081 11.8167 60.9374 11.3733 61.4787 11.056C62.0294 10.7387 62.6454 10.58 63.3267 10.58C64.0081 10.58 64.6194 10.7387 65.1607 11.056C65.7021 11.3733 66.1267 11.8167 66.4347 12.386C66.7427 12.946 66.8967 13.59 66.8967 14.318L66.8827 14.626ZM63.3267 11.434C62.6174 11.434 62.0201 11.6627 61.5347 12.12C61.0587 12.568 60.7881 13.156 60.7227 13.884H65.9447C65.8794 13.156 65.6041 12.568 65.1187 12.12C64.6427 11.6627 64.0454 11.434 63.3267 11.434ZM71.9719 18.07C71.2439 18.07 70.5906 17.9113 70.0119 17.594C69.4426 17.2767 68.9946 16.8333 68.6679 16.264C68.3413 15.6853 68.1779 15.0367 68.1779 14.318C68.1779 13.5993 68.3413 12.9553 68.6679 12.386C68.9946 11.8167 69.4426 11.3733 70.0119 11.056C70.5906 10.7387 71.2439 10.58 71.9719 10.58C72.6066 10.58 73.1713 10.706 73.6659 10.958C74.1699 11.2007 74.5666 11.56 74.8559 12.036L74.1139 12.54C73.8713 12.176 73.5633 11.9053 73.1899 11.728C72.8166 11.5413 72.4106 11.448 71.9719 11.448C71.4399 11.448 70.9593 11.5693 70.5299 11.812C70.1099 12.0453 69.7786 12.3813 69.5359 12.82C69.3026 13.2587 69.1859 13.758 69.1859 14.318C69.1859 14.8873 69.3026 15.3913 69.5359 15.83C69.7786 16.2593 70.1099 16.5953 70.5299 16.838C70.9593 17.0713 71.4399 17.188 71.9719 17.188C72.4106 17.188 72.8166 17.0993 73.1899 16.922C73.5633 16.7447 73.8713 16.474 74.1139 16.11L74.8559 16.614C74.5666 17.09 74.1699 17.454 73.6659 17.706C73.1619 17.9487 72.5973 18.07 71.9719 18.07ZM80.4512 10.58C81.3752 10.58 82.1079 10.8507 82.6492 11.392C83.1999 11.924 83.4752 12.7033 83.4752 13.73V18H82.4812V13.828C82.4812 13.0627 82.2899 12.4793 81.9072 12.078C81.5246 11.6767 80.9786 11.476 80.2692 11.476C79.4759 11.476 78.8459 11.714 78.3792 12.19C77.9219 12.6567 77.6932 13.3053 77.6932 14.136V18H76.6992V7.612H77.6932V11.924C77.9639 11.4947 78.3372 11.1633 78.8132 10.93C79.2892 10.6967 79.8352 10.58 80.4512 10.58ZM93.6319 10.58C94.3226 10.58 94.9479 10.7387 95.5079 11.056C96.0679 11.364 96.5066 11.8027 96.8239 12.372C97.1412 12.9413 97.2999 13.59 97.2999 14.318C97.2999 15.0553 97.1412 15.7087 96.8239 16.278C96.5066 16.8473 96.0679 17.2907 95.5079 17.608C94.9572 17.916 94.3319 18.07 93.6319 18.07C93.0346 18.07 92.4932 17.9487 92.0079 17.706C91.5319 17.454 91.1399 17.09 90.8319 16.614V20.716H89.8379V10.636H90.7899V12.092C91.0886 11.6067 91.4806 11.2333 91.9659 10.972C92.4606 10.7107 93.0159 10.58 93.6319 10.58ZM93.5619 17.188C94.0752 17.188 94.5419 17.0713 94.9619 16.838C95.3819 16.5953 95.7086 16.2547 95.9419 15.816C96.1846 15.3773 96.3059 14.878 96.3059 14.318C96.3059 13.758 96.1846 13.2633 95.9419 12.834C95.7086 12.3953 95.3819 12.0547 94.9619 11.812C94.5419 11.5693 94.0752 11.448 93.5619 11.448C93.0392 11.448 92.5679 11.5693 92.1479 11.812C91.7372 12.0547 91.4106 12.3953 91.1679 12.834C90.9346 13.2633 90.8179 13.758 90.8179 14.318C90.8179 14.878 90.9346 15.3773 91.1679 15.816C91.4106 16.2547 91.7372 16.5953 92.1479 16.838C92.5679 17.0713 93.0392 17.188 93.5619 17.188ZM100.278 12.078C100.512 11.5833 100.857 11.21 101.314 10.958C101.781 10.706 102.355 10.58 103.036 10.58V11.546L102.798 11.532C102.024 11.532 101.417 11.77 100.978 12.246C100.54 12.722 100.32 13.3893 100.32 14.248V18H99.3262V10.636H100.278V12.078ZM107.778 18.07C107.068 18.07 106.429 17.9113 105.86 17.594C105.29 17.2673 104.842 16.8193 104.516 16.25C104.189 15.6807 104.026 15.0367 104.026 14.318C104.026 13.5993 104.189 12.9553 104.516 12.386C104.842 11.8167 105.29 11.3733 105.86 11.056C106.429 10.7387 107.068 10.58 107.778 10.58C108.487 10.58 109.126 10.7387 109.696 11.056C110.265 11.3733 110.708 11.8167 111.026 12.386C111.352 12.9553 111.516 13.5993 111.516 14.318C111.516 15.0367 111.352 15.6807 111.026 16.25C110.708 16.8193 110.265 17.2673 109.696 17.594C109.126 17.9113 108.487 18.07 107.778 18.07ZM107.778 17.188C108.3 17.188 108.767 17.0713 109.178 16.838C109.598 16.5953 109.924 16.2547 110.158 15.816C110.391 15.3773 110.508 14.878 110.508 14.318C110.508 13.758 110.391 13.2587 110.158 12.82C109.924 12.3813 109.598 12.0453 109.178 11.812C108.767 11.5693 108.3 11.448 107.778 11.448C107.255 11.448 106.784 11.5693 106.364 11.812C105.953 12.0453 105.626 12.3813 105.384 12.82C105.15 13.2587 105.034 13.758 105.034 14.318C105.034 14.878 105.15 15.3773 105.384 15.816C105.626 16.2547 105.953 16.5953 106.364 16.838C106.784 17.0713 107.255 17.188 107.778 17.188ZM120.265 7.612V18H119.313V16.544C119.014 17.0387 118.618 17.4167 118.123 17.678C117.638 17.9393 117.087 18.07 116.471 18.07C115.78 18.07 115.155 17.9113 114.595 17.594C114.035 17.2767 113.596 16.8333 113.279 16.264C112.962 15.6947 112.803 15.046 112.803 14.318C112.803 13.59 112.962 12.9413 113.279 12.372C113.596 11.8027 114.035 11.364 114.595 11.056C115.155 10.7387 115.78 10.58 116.471 10.58C117.068 10.58 117.605 10.706 118.081 10.958C118.566 11.2007 118.963 11.56 119.271 12.036V7.612H120.265ZM116.555 17.188C117.068 17.188 117.53 17.0713 117.941 16.838C118.361 16.5953 118.688 16.2547 118.921 15.816C119.164 15.3773 119.285 14.878 119.285 14.318C119.285 13.758 119.164 13.2587 118.921 12.82C118.688 12.3813 118.361 12.0453 117.941 11.812C117.53 11.5693 117.068 11.448 116.555 11.448C116.032 11.448 115.561 11.5693 115.141 11.812C114.73 12.0453 114.404 12.3813 114.161 12.82C113.928 13.2587 113.811 13.758 113.811 14.318C113.811 14.878 113.928 15.3773 114.161 15.816C114.404 16.2547 114.73 16.5953 115.141 16.838C115.561 17.0713 116.032 17.188 116.555 17.188ZM129.669 10.636V18H128.717V16.656C128.456 17.104 128.097 17.454 127.639 17.706C127.182 17.9487 126.659 18.07 126.071 18.07C125.11 18.07 124.349 17.804 123.789 17.272C123.239 16.7307 122.963 15.942 122.963 14.906V10.636H123.957V14.808C123.957 15.5827 124.149 16.1707 124.531 16.572C124.914 16.9733 125.46 17.174 126.169 17.174C126.944 17.174 127.555 16.9407 128.003 16.474C128.451 15.998 128.675 15.34 128.675 14.5V10.636H129.669ZM135.505 18.07C134.777 18.07 134.124 17.9113 133.545 17.594C132.976 17.2767 132.528 16.8333 132.201 16.264C131.874 15.6853 131.711 15.0367 131.711 14.318C131.711 13.5993 131.874 12.9553 132.201 12.386C132.528 11.8167 132.976 11.3733 133.545 11.056C134.124 10.7387 134.777 10.58 135.505 10.58C136.14 10.58 136.704 10.706 137.199 10.958C137.703 11.2007 138.1 11.56 138.389 12.036L137.647 12.54C137.404 12.176 137.096 11.9053 136.723 11.728C136.35 11.5413 135.944 11.448 135.505 11.448C134.973 11.448 134.492 11.5693 134.063 11.812C133.643 12.0453 133.312 12.3813 133.069 12.82C132.836 13.2587 132.719 13.758 132.719 14.318C132.719 14.8873 132.836 15.3913 133.069 15.83C133.312 16.2593 133.643 16.5953 134.063 16.838C134.492 17.0713 134.973 17.188 135.505 17.188C135.944 17.188 136.35 17.0993 136.723 16.922C137.096 16.7447 137.404 16.474 137.647 16.11L138.389 16.614C138.1 17.09 137.703 17.454 137.199 17.706C136.695 17.9487 136.13 18.07 135.505 18.07ZM144.302 17.552C144.115 17.72 143.882 17.8507 143.602 17.944C143.331 18.028 143.047 18.07 142.748 18.07C142.057 18.07 141.525 17.8833 141.152 17.51C140.779 17.1367 140.592 16.6093 140.592 15.928V11.476H139.276V10.636H140.592V9.026H141.586V10.636H143.826V11.476H141.586V15.872C141.586 16.3107 141.693 16.6467 141.908 16.88C142.132 17.104 142.449 17.216 142.86 17.216C143.065 17.216 143.261 17.1833 143.448 17.118C143.644 17.0527 143.812 16.9593 143.952 16.838L144.302 17.552Z" fill="#56595A"/>
<mask id="mask0" mask-type="alpha" maskUnits="userSpaceOnUse" x="0" y="0" width="26" height="23">
<rect y="0.269531" width="25.7095" height="22.7303" fill="#56595A"/>
</mask>
<g mask="url(#mask0)">
<path d="M18.6376 20.7541L25.1048 22.4928C25.1603 22.5077 25.2111 22.4416 25.1843 22.3892L15.7831 3.99319C15.7489 3.92628 15.6474 3.97224 15.6608 4.04855L18.5949 20.7058C18.5991 20.7297 18.6154 20.7481 18.6376 20.7541Z" fill="#56595A"/>
<path d="M14.6714 7.39347L13.1606 0.671876C13.1476 0.614118 13.0708 0.601707 13.0403 0.652434L2.33156 18.4532C2.29261 18.5179 2.37592 18.5864 2.4319 18.5356L14.6515 7.45649C14.669 7.44061 14.6766 7.41654 14.6714 7.39347Z" fill="#56595A"/>
<path d="M5.60513 17.5168L0.531338 22.1772C0.487739 22.2173 0.515257 22.29 0.574444 22.2912L21.344 22.7011C21.4196 22.7026 21.4374 22.5963 21.3655 22.5731L5.66971 17.5027C5.64721 17.4954 5.62254 17.5008 5.60513 17.5168Z" fill="#56595A"/>
</g>
</svg>
