<svg width="165" height="171" viewBox="0 0 165 171" fill="none" xmlns="http://www.w3.org/2000/svg">
<path d="M105.873 127.027C105.873 120.431 103.311 109.036 99.0016 98.9116C96.8503 93.857 94.2801 89.1599 91.408 85.5573C88.5681 81.995 85.5001 79.5863 82.3246 78.8638C79.0395 79.5164 75.9188 81.8871 73.0609 85.4312C70.1699 89.0163 67.6155 93.7196 65.4937 98.7923C61.2447 108.951 58.7974 120.426 58.7974 127.027C58.7974 135.676 60.6066 141.522 64.3449 145.223C68.0846 148.925 73.9137 150.639 82.3351 150.639C91.2845 150.639 97.0984 148.942 100.702 145.266C104.309 141.586 105.873 135.749 105.873 127.027Z" stroke="#DFDADB" stroke-width="1.5"/>
<circle cx="82.3351" cy="79.2772" r="3.29678" fill="#DFDADB"/>
<path d="M83.0686 25.7932C83.2341 25.5067 82.9925 24.7661 82.3849 25.303C81.4868 26.0968 83.5771 27.6685 84.58 25.9667C85.9005 23.7259 82.2139 20.9732 79.3367 23.5633C76.848 25.8036 77.9073 31.1559 81.5069 32.923C85.4168 34.8424 95.1413 32.6881 95.78 24.2031C96.4481 15.3265 90.999 8.41383 85.5358 6.22227C81.4667 4.58997 66.0995 0.17099 54.8708 15.2077C47.205 25.4732 45.543 41.6644 68.8908 60.6422C76.9887 67.2244 81.0273 73.0561 82.6585 79.3876" stroke="#DFDADB" stroke-width="1.5"/>
<circle r="3.29678" transform="matrix(-0.982735 -0.185018 -0.185018 0.982735 82.3388 24.8858)" fill="#DFDADB"/>
<path d="M42.1754 124.658C42.1754 130.368 39.948 140.252 36.1973 149.038C34.3251 153.423 32.0901 157.494 29.5954 160.613C27.1332 163.693 24.4845 165.763 21.7555 166.389C18.9321 165.823 16.2381 163.785 13.7607 160.723C11.25 157.618 9.02888 153.543 7.18251 149.142C3.4843 140.327 1.35645 130.374 1.35645 124.658C1.35645 113.386 10.4941 104.248 21.7659 104.248C33.0378 104.248 42.1754 113.386 42.1754 124.658Z" stroke="#DFDADB" stroke-width="1.5"/>
<path d="M22.5525 104.211C30.3591 105.072 48.8387 108.724 60.304 116.441" stroke="#DFDADB" stroke-width="1.5"/>
<path d="M22.2473 88.668C30.9024 89.623 51.3905 93.672 64.1019 102.227" stroke="#DFDADB" stroke-width="1.5" stroke-linecap="round"/>
<path d="M28.3228 75.5898C36.9779 76.5449 57.4659 80.5938 70.1773 89.1493" stroke="#DFDADB" stroke-width="1.5" stroke-linecap="round"/>
<circle cx="22.5524" cy="104.211" r="3.29678" fill="#DFDADB"/>
<circle cx="22.5524" cy="167.154" r="3.29678" fill="#DFDADB"/>
<circle cx="143.186" cy="104.211" r="3.29678" fill="#DFDADB"/>
<circle cx="143.186" cy="167.154" r="3.29678" fill="#DFDADB"/>
<path d="M122.777 124.656C122.777 130.366 125.004 140.25 128.755 149.036C130.627 153.421 132.862 157.492 135.357 160.612C137.819 163.691 140.468 165.761 143.197 166.387C146.02 165.821 148.714 163.783 151.192 160.721C153.702 157.617 155.924 153.541 157.77 149.14C161.468 140.325 163.596 130.372 163.596 124.656C163.596 113.384 154.458 104.246 143.186 104.246C131.915 104.246 122.777 113.384 122.777 124.656Z" stroke="#DFDADB" stroke-width="1.5"/>
<path d="M142.4 104.209C134.593 105.07 116.114 108.722 104.648 116.439" stroke="#DFDADB" stroke-width="1.5"/>
<path d="M142.4 88.8711C133.745 89.8261 113.257 93.8751 100.545 102.431" stroke="#DFDADB" stroke-width="1.5" stroke-linecap="round"/>
<path d="M136.324 75.793C127.669 76.748 107.181 80.797 94.4699 89.3524" stroke="#DFDADB" stroke-width="1.5" stroke-linecap="round"/>
</svg>
