<svg width="154" height="148" viewBox="0 0 154 148" fill="none" xmlns="http://www.w3.org/2000/svg">
<path d="M77.2512 0.871094C55.595 0.871094 35.5056 14.1434 30.6854 44.6389M77.2512 0.871094C91.4682 0.871094 105.01 6.59109 114 19.1489M77.2512 0.871094C48.524 0.871094 4.18722 29.5479 1.49004 99.9299C-0.940919 163.365 49.9146 152.659 64.226 121.235M77.2512 0.871094C105.978 0.871094 150.193 29.5479 152.89 99.9299C155.321 163.365 105.254 153.996 90.9425 122.572M30.6854 44.6389C29.8468 49.9446 29.4703 55.7716 29.6283 62.1407C30.1552 83.3894 44.5336 111.258 64.226 121.235M30.6854 44.6389C49.5201 51.2885 92.5516 55.4998 114 19.1489M114 19.1489C121.086 29.048 125.344 43.1961 124.874 62.1407C124.221 88.4794 106.133 124.989 79.1751 124.989C73.9654 124.989 68.9432 123.625 64.226 121.235" stroke="#DFDADB" stroke-width="1.5"/>
<circle cx="58.4747" cy="60.4907" r="3.72898" fill="#DFDADB"/>
<circle cx="95.9067" cy="60.4907" r="3.72898" fill="#DFDADB"/>
<circle cx="61.7599" cy="90.5956" r="3.29678" fill="#DFDADB"/>
<circle cx="92.6215" cy="90.5956" r="3.29678" fill="#DFDADB"/>
<path d="M92.6216 90.5957C90.4546 97.0393 84.3647 101.681 77.1907 101.681C70.0168 101.681 63.9269 97.0393 61.7599 90.5957" stroke="#DFDADB" stroke-width="1.5" stroke-linecap="round"/>
</svg>
