<svg width="170" height="155" viewBox="0 0 170 155" fill="none" xmlns="http://www.w3.org/2000/svg">
<path d="M33.1799 70.5527C28.6978 38.106 64.1526 25.748 85.5427 25.748C106.933 25.748 142.388 38.106 137.906 70.5527C132.303 111.111 122.198 153.256 85.5427 153.256C48.8876 153.256 38.7825 111.111 33.1799 70.5527Z" stroke="#DFDADB" stroke-width="1.5"/>
<path d="M44.788 39.2456C30.9834 37.2405 5.31775 27.2143 4.76249 4.07812C0.605432 17.8116 0.361364 48.4677 32.6416 61.2249M32.6416 61.2249C22.1595 65.9671 2.81893 82.7116 10.5386 110.527C19.0961 107.067 35.4972 92.3633 32.6416 61.2249ZM32.6416 61.2249C47.3185 61.2249 71.4996 67.8505 71.4996 112.671" stroke="#DFDADB" stroke-width="1.5"/>
<path d="M125.919 39.2456C139.723 37.2405 165.389 27.2143 165.944 4.07812C170.101 17.8116 170.345 48.4677 138.065 61.2249M138.065 61.2249C148.547 65.9671 167.888 82.7116 160.168 110.527C151.611 107.067 135.209 92.3633 138.065 61.2249ZM138.065 61.2249C123.388 61.2249 99.207 67.8505 99.207 112.671M129.352 113.477H42.4104" stroke="#DFDADB" stroke-width="1.5"/>
<circle cx="42.4104" cy="113.476" r="3.95647" fill="#DFDADB"/>
<circle cx="68.3631" cy="133.167" r="3.95647" fill="#DFDADB"/>
<circle cx="102.722" cy="133.167" r="3.95647" fill="#DFDADB"/>
<circle cx="128.622" cy="113.476" r="3.95647" fill="#DFDADB"/>
<circle cx="159.875" cy="111.08" r="3.95647" fill="#DFDADB"/>
<circle cx="11.21" cy="111.08" r="3.95647" fill="#DFDADB"/>
<circle cx="4.15373" cy="4.07756" r="3.95647" fill="#DFDADB"/>
<circle cx="165.846" cy="4.07756" r="3.95647" fill="#DFDADB"/>
</svg>
