<svg width="166" height="147" viewBox="0 0 166 147" fill="none" xmlns="http://www.w3.org/2000/svg">
<circle cx="83.1337" cy="137.184" r="3.29678" fill="#DFDADB"/>
<circle cx="83.1337" cy="59.7128" r="3.29678" fill="#DFDADB"/>
<circle cx="64.9728" cy="73.6283" r="3.95647" fill="#DFDADB"/>
<circle cx="100.286" cy="73.6283" r="3.95647" fill="#DFDADB"/>
<rect x="26.5095" y="59.4258" width="113.248" height="77.0077" rx="36.96" stroke="#DFDADB" stroke-width="1.5"/>
<path d="M82.9241 59.1797V136.637" stroke="#DFDADB" stroke-width="1.5"/>
<circle cx="38.1242" cy="25.0053" r="23.3393" stroke="#DFDADB" stroke-width="1.5"/>
<path d="M30.3943 79.0048L5.323 53.9335L20.1856 40.4219" stroke="#DFDADB" stroke-width="1.5"/>
<circle cx="5.3229" cy="53.8085" r="3.29678" fill="#DFDADB"/>
<circle cx="30.3942" cy="79.0038" r="3.29678" fill="#DFDADB"/>
<path d="M0.876221 92.6075C3.60355 88.2963 12.7138 80.9673 27.3362 86.1407" stroke="#DFDADB" stroke-width="1.5" stroke-linecap="round"/>
<path d="M4.42828 113.307C5.79943 108.947 12.0046 100.507 25.8559 101.627" stroke="#DFDADB" stroke-width="1.5" stroke-linecap="round"/>
<path d="M24.4937 145.252C22.6552 140.925 21.8746 130.178 33.4601 121.805" stroke="#DFDADB" stroke-width="1.5" stroke-linecap="round"/>
<circle r="23.3393" transform="matrix(-1 0 0 1 127.876 24.9233)" stroke="#DFDADB" stroke-width="1.5"/>
<path d="M135.606 78.9228L160.677 53.8515L145.814 40.3398" stroke="#DFDADB" stroke-width="1.5"/>
<circle r="3.29678" transform="matrix(-1 0 0 1 160.677 53.7265)" fill="#DFDADB"/>
<circle r="3.29678" transform="matrix(-1 0 0 1 135.606 78.9218)" fill="#DFDADB"/>
<path d="M165.124 92.5255C162.396 88.2143 153.286 80.8852 138.664 86.0587" stroke="#DFDADB" stroke-width="1.5" stroke-linecap="round"/>
<path d="M161.572 113.225C160.201 108.865 153.995 100.425 140.144 101.545" stroke="#DFDADB" stroke-width="1.5" stroke-linecap="round"/>
<path d="M141.506 145.17C143.345 140.843 144.125 130.096 132.54 121.723" stroke="#DFDADB" stroke-width="1.5" stroke-linecap="round"/>
</svg>
