<svg width="150" height="156" viewBox="0 0 150 156" fill="none" xmlns="http://www.w3.org/2000/svg">
<path d="M42.7806 42.8187C36.5977 31.7544 19.0346 18.2248 5.84737 32.7306C-9.63523 49.7612 15.1214 83.494 25.8596 92.2798" stroke="#DFDADB" stroke-width="1.5"/>
<path d="M113.316 10.998C113.316 12.1309 112.494 13.3815 110.583 14.6547C108.7 15.9091 105.926 17.0679 102.431 18.0528C95.4517 20.0196 85.7662 21.2459 75.0373 21.2459C64.3084 21.2459 54.6228 20.0196 47.6431 18.0528C44.1481 17.0679 41.3742 15.9091 39.4913 14.6547C37.5802 13.3815 36.7584 12.1309 36.7584 10.998C36.7584 9.86497 37.5802 8.61445 39.4913 7.34122C41.3742 6.08683 44.1481 4.92798 47.6431 3.94311C54.6228 1.9763 64.3084 0.75 75.0373 0.75C85.7662 0.75 95.4517 1.9763 102.431 3.94311C105.926 4.92798 108.7 6.08683 110.583 7.34122C112.494 8.61445 113.316 9.86497 113.316 10.998Z" stroke="#DFDADB" stroke-width="1.5"/>
<circle cx="75.0373" cy="21.2694" r="3.29678" fill="#DFDADB"/>
<path d="M36.8555 11.8301C42.1818 19.7518 49.4692 39.8152 36.0084 56.6951" stroke="#DFDADB" stroke-width="1.5"/>
<circle cx="42.1653" cy="41.9647" r="3.29678" fill="#DFDADB"/>
<circle cx="107.219" cy="41.9647" r="3.29678" fill="#DFDADB"/>
<path d="M113.219 11.8301C107.893 19.7518 100.605 39.8152 114.066 56.6951" stroke="#DFDADB" stroke-width="1.5"/>
<path d="M26.9659 96.7524C30.5372 115.376 45.1519 152.624 75.0401 152.624C104.928 152.624 119.543 115.376 123.114 96.752" stroke="#DFDADB" stroke-width="1.5"/>
<circle cx="75.0374" cy="152.625" r="3.29678" fill="#DFDADB"/>
<path d="M124.809 84.9799C124.809 110.083 102.588 130.542 75.0373 130.542C47.4865 130.542 25.2657 110.083 25.2657 84.9799C25.2657 59.8768 47.4865 39.418 75.0373 39.418C102.588 39.418 124.809 59.8768 124.809 84.9799Z" stroke="#DFDADB" stroke-width="1.5"/>
<circle cx="24.5161" cy="92.2812" r="3.29678" fill="#DFDADB"/>
<circle cx="125.559" cy="92.2812" r="3.29678" fill="#DFDADB"/>
<path d="M52.4481 74.5078C54.1072 69.5746 58.7696 66.0212 64.262 66.0212C69.7544 66.0212 74.4169 69.5746 76.0759 74.5078M76.1191 74.5078C77.7781 69.5746 82.4406 66.0212 87.933 66.0212C93.4254 66.0212 98.0878 69.5746 99.7469 74.5078" stroke="#DFDADB" stroke-width="1.5" stroke-linecap="round"/>
<path d="M86.8727 95.3379C88.5317 90.4047 93.1942 86.8513 98.6866 86.8513C104.179 86.8513 108.841 90.4047 110.501 95.3379" stroke="#DFDADB" stroke-width="1.5" stroke-linecap="round"/>
<path d="M39.5739 95.3379C41.2329 90.4047 45.8954 86.8513 51.3878 86.8513C56.8801 86.8513 61.5426 90.4047 63.2017 95.3379M63.2448 95.3379C64.9039 90.4047 69.5663 86.8513 75.0587 86.8513C80.5511 86.8513 85.2136 90.4047 86.8726 95.3379M52.4481 74.5088C54.1072 69.5756 58.7696 66.0222 64.262 66.0222C69.7544 66.0222 74.4169 69.5756 76.0759 74.5088" stroke="#DFDADB" stroke-width="1.5" stroke-linecap="round"/>
<path d="M107.219 42.8187C113.402 31.7544 130.965 18.2248 144.153 32.7306C159.635 49.7612 134.879 83.494 124.14 92.2798" stroke="#DFDADB" stroke-width="1.5"/>
</svg>
