<svg width="174" height="162" viewBox="0 0 174 162" fill="none" xmlns="http://www.w3.org/2000/svg">
<path d="M51.6469 145.554C41.4149 138.529 33.2955 129.95 29.1093 123.637C29.1489 113.909 31.7496 101.054 34.6565 89.8668C37.584 78.6003 40.7975 69.1159 41.9463 66.3518C49.1752 48.9591 66.619 36.6875 86.9999 36.6875C107.381 36.6875 124.825 48.9591 132.054 66.3518C133.202 69.1159 136.416 78.6003 139.343 89.8668C142.25 101.054 144.851 113.909 144.891 123.637C140.704 129.95 132.585 138.529 122.353 145.554C112.018 152.649 99.6099 158.102 86.9999 158.102C74.39 158.102 61.982 152.649 51.6469 145.554Z" stroke="#DFDADB" stroke-width="1.5"/>
<path d="M107.734 108.029C112.998 113.319 116.251 120.611 116.251 128.663C116.251 129.473 116.218 130.275 116.154 131.068C114.93 146.098 102.345 157.914 87 157.914C70.8449 157.914 57.7486 144.818 57.7486 128.663C57.7486 120.611 61.002 113.319 66.266 108.029" stroke="#DFDADB" stroke-width="1.5" stroke-linecap="round"/>
<path d="M115.534 131.078L58.5279 131.078" stroke="#DFDADB" stroke-width="1.5" stroke-linecap="round"/>
<circle cx="58.5279" cy="131.078" r="3.29678" fill="#DFDADB"/>
<circle cx="115.534" cy="131.078" r="3.29678" fill="#DFDADB"/>
<circle cx="87.031" cy="157.914" r="3.29678" fill="#DFDADB"/>
<circle cx="69.6619" cy="73.6991" r="3.29678" fill="#DFDADB"/>
<circle cx="104.338" cy="73.6991" r="3.29678" fill="#DFDADB"/>
<path d="M79.3288 36.8872C61.1536 -1.411 21.4492 -0.842543 3.86896 4.22895C17.7303 5.37826 47.4004 15.8314 55.1897 48.4495C42.6943 32.3839 24.83 29.4493 17.4599 29.9902C17.1218 36.4814 22.0443 51.979 44.4388 62.0403" stroke="#DFDADB" stroke-width="1.5"/>
<circle cx="3.86898" cy="4.0878" r="3.29678" fill="#DFDADB"/>
<circle cx="170.131" cy="4.0878" r="3.29678" fill="#DFDADB"/>
<circle cx="118.655" cy="48.5995" r="3.29678" fill="#DFDADB"/>
<circle cx="54.5923" cy="48.5995" r="3.29678" fill="#DFDADB"/>
<path d="M94.6712 36.8872C112.846 -1.411 152.551 -0.842543 170.131 4.22895C156.27 5.37826 126.6 15.8314 118.81 48.4495C131.306 32.3839 149.17 29.4493 156.54 29.9902C156.878 36.4814 151.956 51.979 129.561 62.0403" stroke="#DFDADB" stroke-width="1.5"/>
</svg>
