<svg width="162" height="167" viewBox="0 0 162 167" fill="none" xmlns="http://www.w3.org/2000/svg">
<path d="M51.1055 104.257C51.1055 117.912 40.0356 128.982 26.3801 128.982C12.7247 128.982 1.65479 117.912 1.65479 104.257C1.65479 101.048 2.26563 97.9836 3.3767 95.1725C6.99786 86.0105 15.9333 79.5312 26.3801 79.5312C36.827 79.5312 45.7624 86.0105 49.3836 95.1725C50.4947 97.9836 51.1055 101.048 51.1055 104.257Z" stroke="#DFDADB" stroke-width="1.5"/>
<path d="M160.411 103.968C160.411 117.623 149.341 128.693 135.686 128.693C122.03 128.693 110.96 117.623 110.96 103.968C110.96 100.759 111.571 97.6945 112.682 94.8834C116.303 85.7214 125.239 79.2422 135.686 79.2422C146.132 79.2422 155.068 85.7214 158.689 94.8834C159.8 97.6945 160.411 100.759 160.411 103.968Z" stroke="#DFDADB" stroke-width="1.5"/>
<path d="M2.6792 97.3223L26.3801 35.916M26.3801 35.916L50.0811 97.3223M26.3801 35.916H135.418M135.418 35.916L111.796 97.3726M135.418 35.916L159.492 97.3222" stroke="#DFDADB" stroke-width="1.5"/>
<circle cx="82.402" cy="36.0624" r="3.29678" fill="#DFDADB"/>
<circle cx="82.402" cy="147.748" r="3.29678" fill="#DFDADB"/>
<circle cx="26.38" cy="36.0624" r="3.29678" fill="#DFDADB"/>
<circle cx="26.38" cy="78.7812" r="3.29678" fill="#DFDADB"/>
<circle cx="135.077" cy="36.0624" r="3.29678" fill="#DFDADB"/>
<circle cx="135.686" cy="78.4921" r="3.29678" fill="#DFDADB"/>
<path d="M91.8074 10.5302C91.8074 15.7246 87.5965 19.9354 82.4022 19.9354C77.2078 19.9354 72.9969 15.7246 72.9969 10.5302C72.9969 5.33586 77.2078 1.125 82.4022 1.125C87.5965 1.125 91.8074 5.33586 91.8074 10.5302Z" stroke="#DFDADB" stroke-width="1.5"/>
<path d="M82.4022 20.5762V146.912" stroke="#DFDADB" stroke-width="1.5"/>
<path d="M118.758 158.242C118.758 159.419 117.991 160.548 116.21 161.605C114.436 162.658 111.813 163.536 108.486 164.233C101.846 165.625 92.6299 166.25 82.4023 166.25C72.1747 166.25 62.9582 165.625 56.3182 164.233C52.9917 163.536 50.3683 162.658 48.595 161.605C46.814 160.548 46.0463 159.419 46.0463 158.242C46.0463 157.035 46.8497 155.741 48.6512 154.44C50.4355 153.152 53.0657 151.961 56.3834 150.948C63.0095 148.925 72.2087 147.662 82.4023 147.662C92.5959 147.662 101.795 148.925 108.421 150.948C111.739 151.961 114.369 153.152 116.153 154.44C117.955 155.741 118.758 157.035 118.758 158.242Z" stroke="#DFDADB" stroke-width="1.5"/>
</svg>
