<svg width="154" height="151" viewBox="0 0 154 151" fill="none" xmlns="http://www.w3.org/2000/svg">
<path d="M137.378 58.2344C142.154 58.2344 146.828 58.6677 151.365 59.4955C152.055 63.6507 152.414 67.9182 152.414 72.2701C152.414 83.1187 150.182 93.4442 146.154 102.814C134.305 130.378 106.908 149.678 75.0055 149.678C70.2292 149.678 65.5546 149.246 61.0185 148.418C60.3286 144.263 59.9695 139.994 59.9695 135.643C59.9695 102.018 81.409 73.3987 111.366 62.713C119.495 59.8136 128.251 58.2344 137.378 58.2344Z" stroke="#DFDADB" stroke-width="1.5"/>
<circle cx="110.727" cy="62.5674" r="3.84082" fill="#DFDADB"/>
<circle cx="145.942" cy="102.614" r="3.84082" fill="#DFDADB"/>
<circle cx="135.499" cy="84.6689" r="3.84082" fill="#DFDADB"/>
<path d="M60.9852 148.44C46.2118 145.641 32.9095 138.684 22.3414 128.832" stroke="#DFDADB" stroke-width="1.5"/>
<circle cx="22.3416" cy="128.833" r="3.84082" fill="#DFDADB"/>
<path d="M92.3242 88.5098C94.0253 94.3317 101.601 108.47 118.295 118.45" stroke="#DFDADB" stroke-width="1.5" stroke-linecap="round"/>
<path d="M81.1096 101.777C82.6947 107.202 89.7539 120.377 105.31 129.676" stroke="#DFDADB" stroke-width="1.5" stroke-linecap="round"/>
<path d="M71.1821 119.459C72.2473 123.104 76.9907 131.957 87.4433 138.206" stroke="#DFDADB" stroke-width="1.5" stroke-linecap="round"/>
<path d="M16.6223 92.1934C11.8462 92.1934 7.17154 91.7601 2.63535 90.9322C1.94539 86.777 1.58635 82.5095 1.58635 78.1577C1.58635 67.309 3.81763 56.9835 7.84557 47.6134C19.6946 20.0493 47.0916 0.749481 78.9945 0.749481C83.7708 0.749481 88.4454 1.18198 92.9815 2.00974C93.6714 6.16499 94.0305 10.4333 94.0305 14.7852C94.0305 48.4099 72.591 77.0291 42.634 87.7147C34.5055 90.6141 25.7492 92.1934 16.6223 92.1934Z" stroke="#DFDADB" stroke-width="1.5"/>
<circle cx="43.2728" cy="87.8604" r="3.84082" transform="rotate(-180 43.2728 87.8604)" fill="#DFDADB"/>
<circle cx="8.05786" cy="47.8135" r="3.84082" transform="rotate(-180 8.05786 47.8135)" fill="#DFDADB"/>
<circle cx="18.5007" cy="65.7588" r="3.84082" transform="rotate(-180 18.5007 65.7588)" fill="#DFDADB"/>
<path d="M93.0148 1.98746C107.788 4.78673 121.09 11.7438 131.659 21.5957" stroke="#DFDADB" stroke-width="1.5"/>
<circle cx="131.658" cy="21.5967" r="3.84082" transform="rotate(-180 131.658 21.5967)" fill="#DFDADB"/>
<path d="M61.6758 61.918C59.9747 56.0961 52.399 41.9573 35.7051 31.9775" stroke="#DFDADB" stroke-width="1.5" stroke-linecap="round"/>
<path d="M72.8904 48.6484C71.3053 43.2235 64.2461 30.0488 48.6905 20.7495" stroke="#DFDADB" stroke-width="1.5" stroke-linecap="round"/>
<path d="M82.8179 30.9688C81.7527 27.3234 77.0093 18.4707 66.5567 12.222" stroke="#DFDADB" stroke-width="1.5" stroke-linecap="round"/>
</svg>
