<svg width="190" height="159" viewBox="0 0 190 159" fill="none" xmlns="http://www.w3.org/2000/svg">
<mask id="mask0" mask-type="alpha" maskUnits="userSpaceOnUse" x="0" y="0" width="190" height="159">
<rect x="0.437988" y="0.324219" width="189.124" height="158.358" fill="#DFDADB"/>
</mask>
<g mask="url(#mask0)">
<path d="M139.871 96.9771C135.437 111.464 129.775 125.721 122.457 136.344C115.13 146.979 106.244 153.838 95.3774 153.838C86.9091 153.838 78.0054 147.013 70.0316 136.321C62.0996 125.685 55.242 111.423 50.8195 96.9771C50.4441 95.3089 49.995 93.5346 49.5249 91.6773C48.6042 88.0393 47.6028 84.083 46.9165 79.9825C45.8824 73.8042 45.6013 67.4677 47.4166 61.7673C49.2208 56.1017 53.1164 50.9989 60.5793 47.2933C68.0717 43.5731 79.1781 41.2539 95.3846 41.2539C111.591 41.254 122.692 43.5732 130.177 47.2933C137.632 50.9987 141.518 56.101 143.313 61.7663C145.118 67.4666 144.828 73.8031 143.786 79.9817C143.098 84.0642 142.099 88.0024 141.18 91.6265C140.704 93.502 140.25 95.2934 139.871 96.9771Z" stroke="#DFDADB" stroke-width="1.5"/>
<path d="M56.3394 112.568C69.7087 105.494 104.037 95.5897 134.397 112.568" stroke="#DFDADB" stroke-width="1.5"/>
<circle cx="78.0389" cy="76.1883" r="3.78209" fill="#DFDADB"/>
<circle cx="112.676" cy="76.1883" r="3.78209" fill="#DFDADB"/>
<circle cx="134.397" cy="112.568" r="3.29678" fill="#DFDADB"/>
<circle cx="56.3395" cy="112.568" r="3.29678" fill="#DFDADB"/>
<circle cx="95.3683" cy="123.984" r="3.29678" fill="#DFDADB"/>
<path d="M112.929 105.033C112.929 115.649 105.339 120.234 95.3682 124.915M95.3682 124.915C84.4639 119.963 77.8071 115.649 77.8071 105.033M95.3682 124.915V153.387" stroke="#DFDADB" stroke-width="1.5"/>
<path d="M155.442 56.7929C156.025 56.6648 156.7 55.429 155.239 55.2676C153.079 55.029 153.604 59.7826 157.09 59.0477C161.679 58.08 160.727 49.7201 153.745 49.0139C147.706 48.403 141.975 56.4059 144.117 63.438C146.444 71.0764 161.352 81.567 173.315 72.0111C185.83 62.0142 188.166 46.1655 184.27 36.0949C181.367 28.5941 168.108 2.41009 134.373 5.70568C118.205 7.28519 101.865 16.4481 94.947 40.744" stroke="#DFDADB" stroke-width="1.5"/>
<circle cx="95.3573" cy="40.5047" r="3.78209" fill="#DFDADB"/>
<circle r="2.52738" transform="matrix(-0.531843 -0.846843 -0.846843 0.531843 155.647 56.8035)" fill="#DFDADB"/>
<path d="M34.7643 56.7929C34.1816 56.6648 33.5066 55.429 34.9678 55.2676C37.1275 55.029 36.6019 59.7826 33.1166 59.0477C28.5272 58.08 29.4797 49.7201 36.4613 49.0139C42.5001 48.403 48.2314 56.4059 46.0892 63.438C43.7624 71.0764 28.8545 81.567 16.8912 72.0111C4.37595 62.0142 2.04002 46.1655 5.93675 36.0949C8.83908 28.5941 22.0981 2.41009 55.8328 5.70568C72.0013 7.28519 88.3414 16.4481 95.2593 40.744" stroke="#DFDADB" stroke-width="1.5"/>
<circle cx="34.5589" cy="56.8035" r="2.52738" transform="rotate(-57.8699 34.5589 56.8035)" fill="#DFDADB"/>
</g>
</svg>
