<svg width="178" height="177" viewBox="0 0 178 177" fill="none" xmlns="http://www.w3.org/2000/svg">
<path d="M89.4328 24.6784C82.2924 19.8388 73.6771 17.0117 64.4014 17.0117C39.7305 17.0117 19.7307 37.0115 19.7307 61.6824C19.7307 62.0968 19.7364 62.5098 19.7476 62.9215" stroke="#DFDADB" stroke-width="1.5"/>
<path d="M158.351 64.2314C158.77 55.6157 156.703 46.787 151.879 38.8649C139.046 17.7941 111.562 11.1158 90.491 23.9485C90.1371 24.164 89.7873 24.3837 89.4415 24.6074" stroke="#DFDADB" stroke-width="1.5"/>
<circle cx="89.4328" cy="24.7377" r="3.95647" fill="#DFDADB"/>
<path d="M133.227 142.856C134.44 142.856 135.643 142.806 136.832 142.709C159.332 140.876 177.02 122.035 177.02 99.062C177.02 84.1526 169.57 70.9833 158.189 63.0742" stroke="#DFDADB" stroke-width="1.5"/>
<circle cx="158.553" cy="63.4076" r="3.95647" fill="#DFDADB"/>
<path d="M45.3938 142.168C44.1799 142.168 42.9775 142.119 41.7886 142.022C19.2885 140.189 1.60014 121.347 1.60014 98.3745C1.60014 83.4651 9.05072 70.2958 20.4318 62.3867" stroke="#DFDADB" stroke-width="1.5"/>
<circle cx="19.5405" cy="62.7533" r="3.95647" fill="#DFDADB"/>
<path d="M135.328 142.508C128.683 161.893 110.501 175.807 89.1128 175.807C67.7245 175.807 49.5426 161.893 42.8979 142.508" stroke="#DFDADB" stroke-width="1.5"/>
<circle cx="42.5507" cy="143.011" r="3.95647" fill="#DFDADB"/>
<circle cx="134.982" cy="142.857" r="3.95647" fill="#DFDADB"/>
<path d="M129.961 70.8543L134.127 65.9218C139.116 60.0146 138.371 51.1816 132.464 46.1927L131.986 45.7891C126.079 40.8002 117.246 41.5445 112.257 47.4517L108.091 52.3842" stroke="#DFDADB" stroke-width="1.5"/>
<path d="M108.701 52.2141C105.625 49.8107 97.9964 48.1094 89.0732 48.1094C80.15 48.1094 72.5218 49.8107 69.4453 52.2141" stroke="#DFDADB" stroke-width="1.5"/>
<path d="M130.017 70.1484C134.641 84.1365 136.526 110.46 121.22 132.621H89.0144" stroke="#DFDADB" stroke-width="1.5"/>
<path d="M48.2168 70.8543L44.051 65.9218C39.062 60.0146 39.8064 51.1816 45.7135 46.1927L46.1914 45.7891C52.0985 40.8002 60.9315 41.5445 65.9205 47.4517L70.0863 52.3842" stroke="#DFDADB" stroke-width="1.5"/>
<path d="M48.114 70.1562C43.4897 84.1443 41.6516 110.461 56.9574 132.623H89.1633" stroke="#DFDADB" stroke-width="1.5"/>
<path d="M89.0889 145.429C79.2559 145.429 70.6107 140.34 65.6447 132.649H112.533C107.567 140.34 98.9219 145.429 89.0889 145.429Z" stroke="#DFDADB" stroke-width="1.5"/>
<circle cx="72.6366" cy="83.2807" r="3.95647" fill="#DFDADB"/>
<circle cx="107.214" cy="83.2807" r="3.95647" fill="#DFDADB"/>
<path d="M88.7443 118.449C89.2447 119.072 90.1928 119.072 90.6932 118.449L103.603 102.381C104.26 101.563 103.678 100.348 102.628 100.348H76.8092C75.7598 100.348 75.1775 101.563 75.8347 102.381L88.7443 118.449Z" stroke="#DFDADB" stroke-width="1.5"/>
<path d="M90.063 118.711V132.6" stroke="#DFDADB" stroke-width="1.5"/>
<circle cx="90.0629" cy="118.712" r="3.95647" fill="#DFDADB"/>
</svg>
