<svg width="166" height="163" viewBox="0 0 166 163" fill="none" xmlns="http://www.w3.org/2000/svg">
<path d="M4.18457 81.5107H27.6322M4.18457 81.5107L15.495 66.0213M4.18457 81.5107L15.495 97.0002M61.281 3.31836L15.495 66.0213M121.16 81.5107H27.6322M163.527 81.5107L151.177 66.6098M163.527 81.5107L151.177 96.4116M163.527 81.5107H137.863M27.6322 81.5107L15.495 66.0213M27.6322 81.5107L15.495 97.0002M23.2865 55.3511L43.2439 81.511L23.2865 107.67M15.495 97.0002L23.2865 107.67M23.2865 107.67L61.281 159.703" stroke="#DFDADB" stroke-width="1.5"/>
<circle cx="42.81" cy="81.5116" r="3.29678" fill="#DFDADB"/>
<circle cx="162.362" cy="81.5116" r="3.29678" fill="#DFDADB"/>
<circle cx="23.203" cy="107.598" r="3.29678" fill="#DFDADB"/>
<circle cx="4.18447" cy="81.5116" r="3.29678" fill="#DFDADB"/>
<path d="M56.9529 9.20117C93.19 13.373 121.328 44.156 121.328 81.511C121.328 118.866 93.19 149.649 56.9529 153.821" stroke="#DFDADB" stroke-width="1.5"/>
<path d="M59.8784 159.703C103.063 159.703 138.071 124.695 138.071 81.5108C138.071 38.3263 103.063 3.31836 59.8784 3.31836" stroke="#DFDADB" stroke-width="1.5"/>
<circle cx="61.1249" cy="159.703" r="3.29678" fill="#DFDADB"/>
<circle cx="60.2497" cy="3.31826" r="3.29678" fill="#DFDADB"/>
<circle cx="23.0768" cy="55.7538" r="3.29678" fill="#DFDADB"/>
</svg>
